<svg xmlns="http://www.w3.org/2000/svg" version="1.1" xmlns:xlink="http://www.w3.org/1999/xlink" xmlns:svgjs="http://svgjs.dev/svgjs" width="1500" height="1500" viewBox="0 0 1500 1500"><rect width="1500" height="1500" fill="#ffffff"></rect><g transform="matrix(0.6666666666666666,0,0,0.6666666666666666,249.3939393939395,645.3751935176987)"><svg viewBox="0 0 396 83" data-background-color="#ffffff" preserveAspectRatio="xMidYMid meet" height="314" width="1500" xmlns="http://www.w3.org/2000/svg" xmlns:xlink="http://www.w3.org/1999/xlink"><g id="tight-bounds" transform="matrix(1,0,0,1,0.23999999999995225,-0.016597429788134832)"><svg viewBox="0 0 395.52 83.03319485957628" height="83.03319485957628" width="395.52"><g><svg viewBox="0 0 550.5038197687732 115.5696069422573" height="83.03319485957628" width="395.52"><g transform="matrix(1,0,0,1,154.98381976877323,1.281495035324049)"><svg viewBox="0 0 395.52 113.0066168716092" height="113.0066168716092" width="395.52"><g id="textblocktransform"><svg viewBox="0 0 395.52 113.0066168716092" height="113.0066168716092" width="395.52" id="textblock"><g><svg viewBox="0 0 395.52 113.0066168716092" height="113.0066168716092" width="395.52"><g transform="matrix(1,0,0,1,0,0)"><svg width="395.52" viewBox="3.45 -39.2 138.7638916015625 39.650000000000006" height="113.0066168716092" data-palette-color="#0074d9"><g transform="matrix(1,0,0,1,0,0)"><g><svg width="16.815927734375002" viewBox="1.78 -36.36 74.21 36.36" height="8.239" data-palette-color="#0074d9" id="scriptelement" x="125.3979638671875" y="-39.2"><path d="M12.91-30.02L1.78-30.02 1.78-36.36 31.64-36.36 31.64-30.02 20.51-30.02 20.51 0 12.91 0 12.91-30.02ZM36.57 0L36.57-36.36 46.06-36.36 56.07-11.93 56.5-11.93 66.51-36.36 75.99-36.36 75.99 0 68.53 0 68.53-23.67 68.23-23.67 58.82-0.18 53.74-0.18 44.33-23.76 44.03-23.76 44.03 0 36.57 0Z" opacity="1" transform="matrix(1,0,0,1,0,0)" fill="#0074d9" class="undefined-123" data-fill-palette-color="primary" id="yy-123"></path></svg></g></g><path d="M37.85-28.1Q42.95-28.1 46.08-24.98 49.2-21.85 49.2-16.25L49.2-16.25 49.2 0 42.2 0 42.2-15.3Q42.2-18.55 40.55-20.28 38.9-22 36.05-22L36.05-22Q33.2-22 31.53-20.28 29.85-18.55 29.85-15.3L29.85-15.3 29.85 0 22.85 0 22.85-15.3Q22.85-18.55 21.2-20.28 19.55-22 16.7-22L16.7-22Q13.8-22 12.13-20.28 10.45-18.55 10.45-15.3L10.45-15.3 10.45 0 3.45 0 3.45-27.7 10.45-27.7 10.45-24.35Q11.8-26.1 13.93-27.1 16.05-28.1 18.6-28.1L18.6-28.1Q21.85-28.1 24.4-26.73 26.95-25.35 28.35-22.8L28.35-22.8Q29.7-25.2 32.27-26.65 34.85-28.1 37.85-28.1L37.85-28.1ZM59.4-31Q57.55-31 56.32-32.18 55.1-33.35 55.1-35.1L55.1-35.1Q55.1-36.85 56.32-38.02 57.55-39.2 59.4-39.2L59.4-39.2Q61.25-39.2 62.47-38.02 63.7-36.85 63.7-35.1L63.7-35.1Q63.7-33.35 62.47-32.18 61.25-31 59.4-31L59.4-31ZM55.85-27.7L62.85-27.7 62.85 0 55.85 0 55.85-27.7ZM76.75-23.4Q78.1-25.6 80.27-26.85 82.45-28.1 85.25-28.1L85.25-28.1 85.25-20.75 83.4-20.75Q80.1-20.75 78.42-19.2 76.75-17.65 76.75-13.8L76.75-13.8 76.75 0 69.75 0 69.75-27.7 76.75-27.7 76.75-23.4ZM88.14-13.95Q88.14-18.15 89.82-21.4 91.49-24.65 94.37-26.4 97.24-28.15 100.79-28.15L100.79-28.15Q103.89-28.15 106.22-26.9 108.54-25.65 109.94-23.75L109.94-23.75 109.94-27.7 116.99-27.7 116.99 0 109.94 0 109.94-4.05Q108.59-2.1 106.22-0.83 103.84 0.45 100.74 0.45L100.74 0.45Q97.24 0.45 94.37-1.35 91.49-3.15 89.82-6.43 88.14-9.7 88.14-13.95L88.14-13.95ZM109.94-13.85Q109.94-16.4 108.94-18.23 107.94-20.05 106.24-21.03 104.54-22 102.59-22L102.59-22Q100.64-22 98.99-21.05 97.34-20.1 96.32-18.28 95.29-16.45 95.29-13.95L95.29-13.95Q95.29-11.45 96.32-9.58 97.34-7.7 99.02-6.7 100.69-5.7 102.59-5.7L102.59-5.7Q104.54-5.7 106.24-6.68 107.94-7.65 108.94-9.47 109.94-11.3 109.94-13.85L109.94-13.85Z" opacity="1" transform="matrix(1,0,0,1,0,0)" fill="#0074d9" class="wordmark-text-0" data-fill-palette-color="primary" id="text-0"></path></svg></g></svg></g></svg></g></svg></g><g><svg viewBox="0 0 128.30566968419123 115.5696069422573" height="115.5696069422573" width="128.30566968419123"><g><svg xmlns="http://www.w3.org/2000/svg" xmlns:xlink="http://www.w3.org/1999/xlink" version="1.1" x="0" y="0" viewBox="0.4450000000000003 5.364 99.10999999999999 89.27199999999999" style="enable-background:new 0 0 100 100;" xml:space="preserve" height="115.5696069422573" width="128.30566968419123" class="icon-icon-0" data-fill-palette-color="accent" id="icon-0"><g fill="#39cccc" data-fill-palette-color="accent"><path d="M15.57 64.387c-8.354 0-15.125 6.771-15.125 15.125 0 8.353 6.771 15.124 15.125 15.124 8.353 0 15.124-6.771 15.124-15.124C30.694 71.158 23.923 64.387 15.57 64.387zM15.57 87.789c-4.565 0-8.278-3.713-8.278-8.277s3.713-8.278 8.278-8.278c4.564 0 8.277 3.714 8.277 8.278S20.135 87.789 15.57 87.789z" fill="#39cccc" data-fill-palette-color="accent"></path><path d="M50 64.387c-8.353 0-15.125 6.771-15.125 15.125 0 8.353 6.772 15.124 15.125 15.124 8.354 0 15.125-6.771 15.125-15.124C65.125 71.158 58.354 64.387 50 64.387zM50 87.789c-4.564 0-8.278-3.713-8.278-8.277s3.714-8.278 8.278-8.278c4.565 0 8.277 3.714 8.277 8.278S54.565 87.789 50 87.789z" fill="#39cccc" data-fill-palette-color="accent"></path><path d="M84.431 64.387c-8.354 0-15.125 6.771-15.125 15.125 0 8.353 6.771 15.124 15.125 15.124 8.352 0 15.124-6.771 15.124-15.124C99.555 71.158 92.782 64.387 84.431 64.387zM84.431 87.789c-4.564 0-8.278-3.713-8.278-8.277s3.714-8.278 8.278-8.278 8.277 3.714 8.277 8.278S88.995 87.789 84.431 87.789z" fill="#39cccc" data-fill-palette-color="accent"></path><path d="M32.785 34.875c-8.354 0-15.125 6.772-15.125 15.125 0 8.354 6.771 15.124 15.125 15.124S47.909 58.354 47.909 50C47.909 41.647 41.139 34.875 32.785 34.875zM32.785 58.277c-4.564 0-8.278-3.713-8.278-8.277s3.714-8.278 8.278-8.278 8.277 3.713 8.277 8.278S37.35 58.277 32.785 58.277z" fill="#39cccc" data-fill-palette-color="accent"></path><path d="M67.215 34.875c-8.353 0-15.125 6.772-15.125 15.125 0 8.354 6.772 15.124 15.125 15.124 8.354 0 15.125-6.771 15.125-15.124C82.34 41.647 75.568 34.875 67.215 34.875zM67.215 58.277c-4.564 0-8.277-3.713-8.277-8.277s3.713-8.278 8.277-8.278 8.278 3.713 8.278 8.278S71.779 58.277 67.215 58.277z" fill="#39cccc" data-fill-palette-color="accent"></path><path d="M50 5.364c-8.353 0-15.125 6.771-15.125 15.124S41.647 35.613 50 35.613c8.354 0 15.125-6.772 15.125-15.125S58.354 5.364 50 5.364zM50 28.767c-4.564 0-8.278-3.714-8.278-8.279S45.436 12.21 50 12.21c4.565 0 8.277 3.713 8.277 8.278S54.565 28.767 50 28.767z" fill="#39cccc" data-fill-palette-color="accent"></path></g></svg></g></svg></g></svg></g><defs></defs></svg><rect width="395.52" height="83.03319485957628" fill="none" stroke="none" visibility="hidden"></rect></g></svg></g></svg>